{
  "accessors": [
    {
      "bufferView": 2,
      "componentType": 5126,
      "count": 65532,
      "max": [
        20.488899230957031,
        58.045200347900391,
        172.78599548339844
      ],
      "min": [
        -127.23000335693359,
        27.05620002746582,
        -138.38200378417969
      ],
      "type": "VEC3"
    },
    {
      "bufferView": 2,
      "byteOffset": 786384,
      "componentType": 5126,
      "count": 65532,
      "max": [
        0.99895757436752319,
        0.99958527088165283,
        0.99965554475784302
      ],
      "min": [
        -0.99928712844848633,
        -0.9999992847442627,
        -0.99944639205932617
      ],
      "type": "VEC3"
    },
    {
      "bufferView": 3,
      "componentType": 5126,
      "count": 65532,
      "max": [
        0.99991786479949951,
        0.99991005659103394,
        0.99995267391204834,
        1
      ],
      "min": [
        -0.99959808588027954,
        -0.99949175119400024,
        -0.99973857402801514,
        -1
      ],
      "type": "VEC4"
    },
    {
      "bufferView": 1,
      "componentType": 5126,
      "count": 65532,
      "max": [
        0.99619102478027344,
        0.99920099973678589
      ],
      "min": [
        0.00076916097896173596,
        0.00079637602902948856
      ],
      "type": "VEC2"
    },
    {
      "bufferView": 0,
      "componentType": 5125,
      "count": 326913,
      "max": [
        65531
      ],
      "min": [
        0
      ],
      "type": "SCALAR"
    },
    {
      "bufferView": 2,
      "byteOffset": 1572768,
      "componentType": 5126,
      "count": 65532,
      "max": [
        95.436203002929688,
        56.745201110839844,
        170.4219970703125
      ],
      "min": [
        -138.8179931640625,
        27.236299514770508,
        -136.09599304199219
      ],
      "type": "VEC3"
    },
    {
      "bufferView": 2,
      "byteOffset": 2359152,
      "componentType": 5126,
      "count": 65532,
      "max": [
        0.99924498796463013,
        0.99977695941925049,
        0.99982583522796631
      ],
      "min": [
        -0.99990355968475342,
        -0.99999910593032837,
        -0.9993586540222168
      ],
      "type": "VEC3"
    },
    {
      "bufferView": 3,
      "byteOffset": 1048512,
      "componentType": 5126,
      "count": 65532,
      "max": [
        0.99994343519210815,
        0.99999868869781494,
        0.99981003999710083,
        1
      ],
      "min": [
        -0.99989211559295654,
        -0.99941813945770264,
        -0.99997133016586304,
        -1
      ],
      "type": "VEC4"
    },
    {
      "bufferView": 1,
      "byteOffset": 524256,
      "componentType": 5126,
      "count": 65532,
      "max": [
        0.99862498044967651,
        0.99911898374557495
      ],
      "min": [
        0.00076916097896173596,
        0.0086447997018694878
      ],
      "type": "VEC2"
    },
    {
      "bufferView": 0,
      "byteOffset": 1307652,
      "componentType": 5125,
      "count": 309444,
      "max": [
        65531
      ],
      "min": [
        0
      ],
      "type": "SCALAR"
    },
    {
      "bufferView": 2,
      "byteOffset": 3145536,
      "componentType": 5126,
      "count": 65532,
      "max": [
        109.02899932861328,
        56.122398376464844,
        168.98899841308594
      ],
      "min": [
        -155.25799560546875,
        27.186500549316406,
        -128.43600463867188
      ],
      "type": "VEC3"
    },
    {
      "bufferView": 2,
      "byteOffset": 3931920,
      "componentType": 5126,
      "count": 65532,
      "max": [
        0.99962031841278076,
        0.99108427762985229,
        0.9999077320098877
      ],
      "min": [
        -0.99993300437927246,
        -0.99999988079071045,
        -0.99967819452285767
      ],
      "type": "VEC3"
    },
    {
      "bufferView": 3,
      "byteOffset": 2097024,
      "componentType": 5126,
      "count": 65532,
      "max": [
        0.99993544816970825,
        0.99999368190765381,
        0.99998414516448975,
        1
      ],
      "min": [
        -0.99989569187164307,
        -0.99968081712722778,
        -0.99998676776885986,
        -1
      ],
      "type": "VEC4"
    },
    {
      "bufferView": 1,
      "byteOffset": 1048512,
      "componentType": 5126,
      "count": 65532,
      "max": [
        0.98194801807403564,
        0.99915802478790283
      ],
      "min": [
        0.014049000106751919,
        0.00079637602902948856
      ],
      "type": "VEC2"
    },
    {
      "bufferView": 0,
      "byteOffset": 2545428,
      "componentType": 5125,
      "count": 302547,
      "max": [
        65531
      ],
      "min": [
        0
      ],
      "type": "SCALAR"
    },
    {
      "bufferView": 2,
      "byteOffset": 4718304,
      "componentType": 5126,
      "count": 65532,
      "max": [
        145.91200256347656,
        55.429401397705078,
        168.93699645996094
      ],
      "min": [
        -158.24800109863281,
        27.610799789428711,
        -133.96699523925781
      ],
      "type": "VEC3"
    },
    {
      "bufferView": 2,
      "byteOffset": 5504688,
      "componentType": 5126,
      "count": 65532,
      "max": [
        0.99995040893554688,
        0.97773838043212891,
        0.99968612194061279
      ],
      "min": [
        -0.99993717670440674,
        -0.99999946355819702,
        -0.99992692470550537
      ],
      "type": "VEC3"
    },
    {
      "bufferView": 3,
      "byteOffset": 3145536,
      "componentType": 5126,
      "count": 65532,
      "max": [
        0.99997371435165405,
        0.99994951486587524,
        0.99980396032333374,
        1
      ],
      "min": [
        -0.99973851442337036,
        -0.9998471736907959,
        -0.99635261297225952,
        -1
      ],
      "type": "VEC4"
    },
    {
      "bufferView": 1,
      "byteOffset": 1572768,
      "componentType": 5126,
      "count": 65532,
      "max": [
        0.99566799402236938,
        0.99919599294662476
      ],
      "min": [
        0.00076916097896173596,
        0.00079637602902948856
      ],
      "type": "VEC2"
    },
    {
      "bufferView": 0,
      "byteOffset": 3755616,
      "componentType": 5125,
      "count": 296070,
      "max": [
        65531
      ],
      "min": [
        0
      ],
      "type": "SCALAR"
    },
    {
      "bufferView": 2,
      "byteOffset": 6291072,
      "componentType": 5126,
      "count": 65532,
      "max": [
        157.34599304199219,
        54.714099884033203,
        154.91099548339844
      ],
      "min": [
        -158.24800109863281,
        27.723499298095703,
        -112.22200012207031
      ],
      "type": "VEC3"
    },
    {
      "bufferView": 2,
      "byteOffset": 7077456,
      "componentType": 5126,
      "count": 65532,
      "max": [
        0.9993818998336792,
        0.997871994972229,
        0.99970924854278564
      ],
      "min": [
        -0.99963802099227905,
        -0.99999994039535522,
        -0.99972623586654663
      ],
      "type": "VEC3"
    },
    {
      "bufferView": 3,
      "byteOffset": 4194048,
      "componentType": 5126,
      "count": 65532,
      "max": [
        0.99992775917053223,
        0.99996960163116455,
        0.9988359808921814,
        1
      ],
      "min": [
        -0.99952834844589233,
        -0.9999539852142334,
        -0.99902629852294922,
        -1
      ],
      "type": "VEC4"
    },
    {
      "bufferView": 1,
      "byteOffset": 2097024,
      "componentType": 5126,
      "count": 65532,
      "max": [
        0.99319899082183838,
        0.99914300441741943
      ],
      "min": [
        0.0068497899919748306,
        0.00079637602902948856
      ],
      "type": "VEC2"
    },
    {
      "bufferView": 0,
      "byteOffset": 4939896,
      "componentType": 5125,
      "count": 287979,
      "max": [
        65531
      ],
      "min": [
        0
      ],
      "type": "SCALAR"
    },
    {
      "bufferView": 2,
      "byteOffset": 7863840,
      "componentType": 5126,
      "count": 65532,
      "max": [
        189.91900634765625,
        54.350101470947266,
        168.28199768066406
      ],
      "min": [
        -166.49899291992188,
        27.522300720214844,
        -132.64900207519531
      ],
      "type": "VEC3"
    },
    {
      "bufferView": 2,
      "byteOffset": 8650224,
      "componentType": 5126,
      "count": 65532,
      "max": [
        0.99988716840744019,
        0.99352383613586426,
        0.9993245005607605
      ],
      "min": [
        -0.99950504302978516,
        -0.99999898672103882,
        -0.99982112646102905
      ],
      "type": "VEC3"
    },
    {
      "bufferView": 3,
      "byteOffset": 5242560,
      "componentType": 5126,
      "count": 65532,
      "max": [
        0.99997037649154663,
        0.99999350309371948,
        0.99998921155929565,
        1
      ],
      "min": [
        -0.99993628263473511,
        -0.99996984004974365,
        -0.99931395053863525,
        -1
      ],
      "type": "VEC4"
    },
    {
      "bufferView": 1,
      "byteOffset": 2621280,
      "componentType": 5126,
      "count": 65532,
      "max": [
        0.99923098087310791,
        0.9991229772567749
      ],
      "min": [
        0.0063976501114666462,
        0.0081123197451233864
      ],
      "type": "VEC2"
    },
    {
      "bufferView": 0,
      "byteOffset": 6091812,
      "componentType": 5125,
      "count": 290079,
      "max": [
        65531
      ],
      "min": [
        0
      ],
      "type": "SCALAR"
    },
    {
      "bufferView": 2,
      "byteOffset": 9436608,
      "componentType": 5126,
      "count": 65532,
      "max": [
        205.54200744628906,
        54.245399475097656,
        169.13400268554688
      ],
      "min": [
        -167.45899963378906,
        27.301399230957031,
        -123.78600311279297
      ],
      "type": "VEC3"
    },
    {
      "bufferView": 2,
      "byteOffset": 10222992,
      "componentType": 5126,
      "count": 65532,
      "max": [
        0.99908488988876343,
        0.99892276525497437,
        0.9993855357170105
      ],
      "min": [
        -0.9997093677520752,
        -0.99999940395355225,
        -0.99999642372131348
      ],
      "type": "VEC3"
    },
    {
      "bufferView": 3,
      "byteOffset": 6291072,
      "componentType": 5126,
      "count": 65532,
      "max": [
        0.99942660331726074,
        0.99999099969863892,
        0.99999815225601196,
        1
      ],
      "min": [
        -0.99986386299133301,
        -0.999919593334198,
        -0.99941778182983398,
        -1
      ],
      "type": "VEC4"
    },
    {
      "bufferView": 1,
      "byteOffset": 3145536,
      "componentType": 5126,
      "count": 65532,
      "max": [
        0.99052697420120239,
        0.99920397996902466
      ],
      "min": [
        0.00076916097896173596,
        0.00079637602902948856
      ],
      "type": "VEC2"
    },
    {
      "bufferView": 0,
      "byteOffset": 7252128,
      "componentType": 5125,
      "count": 289380,
      "max": [
        65531
      ],
      "min": [
        0
      ],
      "type": "SCALAR"
    },
    {
      "bufferView": 2,
      "byteOffset": 11009376,
      "componentType": 5126,
      "count": 65532,
      "max": [
        205.48800659179688,
        53.953201293945312,
        148.052001953125
      ],
      "min": [
        -166.50700378417969,
        27.597400665283203,
        -134.05999755859375
      ],
      "type": "VEC3"
    },
    {
      "bufferView": 2,
      "byteOffset": 11795760,
      "componentType": 5126,
      "count": 65532,
      "max": [
        0.99996745586395264,
        0.9968029260635376,
        0.99993306398391724
      ],
      "min": [
        -0.99941116571426392,
        -0.99999922513961792,
        -0.99999254941940308
      ],
      "type": "VEC3"
    },
    {
      "bufferView": 3,
      "byteOffset": 7339584,
      "componentType": 5126,
      "count": 65532,
      "max": [
        0.99942660331726074,
        0.99999856948852539,
        0.99998247623443604,
        1
      ],
      "min": [
        -0.99882966279983521,
        -0.99990886449813843,
        -0.99876946210861206,
        -1
      ],
      "type": "VEC4"
    },
    {
      "bufferView": 1,
      "byteOffset": 3669792,
      "componentType": 5126,
      "count": 65532,
      "max": [
        0.99500900506973267,
        0.99908697605133057
      ],
      "min": [
        0.00076916097896173596,
        0.00079637602902948856
      ],
      "type": "VEC2"
    },
    {
      "bufferView": 0,
      "byteOffset": 8409648,
      "componentType": 5125,
      "count": 286737,
      "max": [
        65531
      ],
      "min": [
        0
      ],
      "type": "SCALAR"
    },
    {
      "bufferView": 2,
      "byteOffset": 12582144,
      "componentType": 5126,
      "count": 65532,
      "max": [
        208.59800720214844,
        53.818199157714844,
        147.07200622558594
      ],
      "min": [
        -158.13699340820312,
        27.46820068359375,
        -130.2449951171875
      ],
      "type": "VEC3"
    },
    {
      "bufferView": 2,
      "byteOffset": 13368528,
      "componentType": 5126,
      "count": 65532,
      "max": [
        1,
        0.99792385101318359,
        0.99960196018218994
      ],
      "min": [
        -0.99970024824142456,
        -0.99999982118606567,
        -0.99911433458328247
      ],
      "type": "VEC3"
    },
    {
      "bufferView": 3,
      "byteOffset": 8388096,
      "componentType": 5126,
      "count": 65532,
      "max": [
        0.99788975715637207,
        0.99999630451202393,
        0.99941533803939819,
        1
      ],
      "min": [
        -0.99952852725982666,
        -0.99990886449813843,
        -0.99966514110565186,
        -1
      ],
      "type": "VEC4"
    },
    {
      "bufferView": 1,
      "byteOffset": 4194048,
      "componentType": 5126,
      "count": 65532,
      "max": [
        0.99591201543807983,
        0.99919301271438599
      ],
      "min": [
        0.00076916097896173596,
        0.00079637602902948856
      ],
      "type": "VEC2"
    },
    {
      "bufferView": 0,
      "byteOffset": 9556596,
      "componentType": 5125,
      "count": 288591,
      "max": [
        65531
      ],
      "min": [
        0
      ],
      "type": "SCALAR"
    },
    {
      "bufferView": 2,
      "byteOffset": 14154912,
      "componentType": 5126,
      "count": 65532,
      "max": [
        206.82000732421875,
        53.811798095703125,
        148.02999877929688
      ],
      "min": [
        -160.41000366210938,
        27.299800872802734,
        -130.906005859375
      ],
      "type": "VEC3"
    },
    {
      "bufferView": 2,
      "byteOffset": 14941296,
      "componentType": 5126,
      "count": 65532,
      "max": [
        0.99997073411941528,
        0.99901992082595825,
        0.99975752830505371
      ],
      "min": [
        -0.99985885620117188,
        -1,
        -0.99819648265838623
      ],
      "type": "VEC3"
    },
    {
      "bufferView": 3,
      "byteOffset": 9436608,
      "componentType": 5126,
      "count": 65532,
      "max": [
        0.99859911203384399,
        0.99999850988388062,
        0.99972718954086304,
        1
      ],
      "min": [
        -0.997111976146698,
        -0.99997001886367798,
        -0.99986612796783447,
        -1
      ],
      "type": "VEC4"
    },
    {
      "bufferView": 1,
      "byteOffset": 4718304,
      "componentType": 5126,
      "count": 65532,
      "max": [
        0.99564099311828613,
        0.99918502569198608
      ],
      "min": [
        0.0024732500314712524,
        0.00079637602902948856
      ],
      "type": "VEC2"
    },
    {
      "bufferView": 0,
      "byteOffset": 10710960,
      "componentType": 5125,
      "count": 287373,
      "max": [
        65531
      ],
      "min": [
        0
      ],
      "type": "SCALAR"
    },
    {
      "bufferView": 2,
      "byteOffset": 15727680,
      "componentType": 5126,
      "count": 11296,
      "max": [
        201.56700134277344,
        53.590900421142578,
        147.83799743652344
      ],
      "min": [
        -159.13499450683594,
        27.258399963378906,
        -128.16499328613281
      ],
      "type": "VEC3"
    },
    {
      "bufferView": 2,
      "byteOffset": 15863232,
      "componentType": 5126,
      "count": 11296,
      "max": [
        0.99826502799987793,
        0.98682451248168945,
        0.99268025159835815
      ],
      "min": [
        -0.99994254112243652,
        -0.9999995231628418,
        -0.99991881847381592
      ],
      "type": "VEC3"
    },
    {
      "bufferView": 3,
      "byteOffset": 10485120,
      "componentType": 5126,
      "count": 11296,
      "max": [
        0.99837601184844971,
        0.99993860721588135,
        0.99759203195571899,
        1
      ],
      "min": [
        -0.99998873472213745,
        -0.99902635812759399,
        -0.9990851879119873,
        -1
      ],
      "type": "VEC4"
    },
    {
      "bufferView": 1,
      "byteOffset": 5242560,
      "componentType": 5126,
      "count": 11296,
      "max": [
        0.97951900959014893,
        0.99879401922225952
      ],
      "min": [
        0.0070863501168787479,
        0.099642500281333923
      ],
      "type": "VEC2"
    },
    {
      "bufferView": 0,
      "byteOffset": 11860452,
      "componentType": 5125,
      "count": 34887,
      "max": [
        11295
      ],
      "min": [
        0
      ],
      "type": "SCALAR"
    }
  ],
  "asset": {
    "extras": {
      "author": "Effective Technology Integration (https://sketchfab.com/eti)",
      "license": "CC-BY-4.0 (http://creativecommons.org/licenses/by/4.0/)",
      "source": "https://sketchfab.com/models/2cc32285dd98497f82cac74b8fbd8d49",
      "title": "Terrain model and rock features near Ludlow, CA"
    },
    "generator": "Sketchfab-3.21.1",
    "version": "2.0"
  },
  "bufferViews": [
    {
      "buffer": 0,
      "byteLength": 12000000,
      "byteOffset": 0,
      "name": "floatBufferViews",
      "target": 34963
    },
    {
      "buffer": 0,
      "byteLength": 5332928,
      "byteOffset": 12000000,
      "byteStride": 8,
      "name": "floatBufferViews",
      "target": 34962
    },
    {
      "buffer": 0,
      "byteLength": 15998784,
      "byteOffset": 17332928,
      "byteStride": 12,
      "name": "floatBufferViews",
      "target": 34962
    },
    {
      "buffer": 0,
      "byteLength": 10665856,
      "byteOffset": 33331712,
      "byteStride": 16,
      "name": "floatBufferViews",
      "target": 34962
    }
  ],
  "buffers": [
    {
      "byteLength": 43997568,
      "uri": "scene.bin"
    }
  ],
  "extensionsUsed": [
    "KHR_materials_unlit"
  ],
  "images": [
    {
      "uri": "textures/material_0_baseColor.jpeg"
    }
  ],
  "materials": [
    {
      "doubleSided": false,
      "emissiveFactor": [
        0,
        0,
        0
      ],
      "extensions": {
        "KHR_materials_unlit": {}
      },
      "name": "material_0",
      "pbrMetallicRoughness": {
        "baseColorFactor": [
          1,
          1,
          1,
          1
        ],
        "baseColorTexture": {
          "index": 0,
          "texCoord": 0
        },
        "metallicFactor": 0,
        "roughnessFactor": 1
      }
    }
  ],
  "meshes": [
    {
      "primitives": [
        {
          "attributes": {
            "NORMAL": 1,
            "POSITION": 0,
            "TANGENT": 2,
            "TEXCOORD_0": 3
          },
          "indices": 4,
          "material": 0,
          "mode": 4
        }
      ]
    },
    {
      "primitives": [
        {
          "attributes": {
            "NORMAL": 6,
            "POSITION": 5,
            "TANGENT": 7,
            "TEXCOORD_0": 8
          },
          "indices": 9,
          "material": 0,
          "mode": 4
        }
      ]
    },
    {
      "primitives": [
        {
          "attributes": {
            "NORMAL": 11,
            "POSITION": 10,
            "TANGENT": 12,
            "TEXCOORD_0": 13
          },
          "indices": 14,
          "material": 0,
          "mode": 4
        }
      ]
    },
    {
      "primitives": [
        {
          "attributes": {
            "NORMAL": 16,
            "POSITION": 15,
            "TANGENT": 17,
            "TEXCOORD_0": 18
          },
          "indices": 19,
          "material": 0,
          "mode": 4
        }
      ]
    },
    {
      "primitives": [
        {
          "attributes": {
            "NORMAL": 21,
            "POSITION": 20,
            "TANGENT": 22,
            "TEXCOORD_0": 23
          },
          "indices": 24,
          "material": 0,
          "mode": 4
        }
      ]
    },
    {
      "primitives": [
        {
          "attributes": {
            "NORMAL": 26,
            "POSITION": 25,
            "TANGENT": 27,
            "TEXCOORD_0": 28
          },
          "indices": 29,
          "material": 0,
          "mode": 4
        }
      ]
    },
    {
      "primitives": [
        {
          "attributes": {
            "NORMAL": 31,
            "POSITION": 30,
            "TANGENT": 32,
            "TEXCOORD_0": 33
          },
          "indices": 34,
          "material": 0,
          "mode": 4
        }
      ]
    },
    {
      "primitives": [
        {
          "attributes": {
            "NORMAL": 36,
            "POSITION": 35,
            "TANGENT": 37,
            "TEXCOORD_0": 38
          },
          "indices": 39,
          "material": 0,
          "mode": 4
        }
      ]
    },
    {
      "primitives": [
        {
          "attributes": {
            "NORMAL": 41,
            "POSITION": 40,
            "TANGENT": 42,
            "TEXCOORD_0": 43
          },
          "indices": 44,
          "material": 0,
          "mode": 4
        }
      ]
    },
    {
      "primitives": [
        {
          "attributes": {
            "NORMAL": 46,
            "POSITION": 45,
            "TANGENT": 47,
            "TEXCOORD_0": 48
          },
          "indices": 49,
          "material": 0,
          "mode": 4
        }
      ]
    },
    {
      "primitives": [
        {
          "attributes": {
            "NORMAL": 51,
            "POSITION": 50,
            "TANGENT": 52,
            "TEXCOORD_0": 53
          },
          "indices": 54,
          "material": 0,
          "mode": 4
        }
      ]
    }
  ],
  "nodes": [
    {
      "children": [
        1
      ],
      "name": "RootNode (gltf orientation matrix)",
      "rotation": [
        -0.70710678118654746,
        -0,
        -0,
        0.70710678118654757
      ]
    },
    {
      "children": [
        2
      ],
      "matrix": [
        -0.92318785190582275,
        0.38433101773262024,
        -0.0037293520290404558,
        0,
        -0.019488928839564323,
        -0.056499805301427841,
        -0.99821239709854126,
        0,
        -0.38385468721389771,
        -0.92146486043930054,
        0.059650130569934845,
        0,
        35.337886810302734,
        30.23515510559082,
        58.742118835449219,
        1
      ],
      "name": "RootNode (model correction matrix)"
    },
    {
      "children": [
        3,
        4,
        5,
        6,
        7,
        8,
        9,
        10,
        11,
        12,
        13
      ],
      "name": "y160206_s1309hi_simplified_3d_mesh.obj.cleaner.gles"
    },
    {
      "mesh": 0,
      "name": ""
    },
    {
      "mesh": 1,
      "name": ""
    },
    {
      "mesh": 2,
      "name": ""
    },
    {
      "mesh": 3,
      "name": ""
    },
    {
      "mesh": 4,
      "name": ""
    },
    {
      "mesh": 5,
      "name": ""
    },
    {
      "mesh": 6,
      "name": ""
    },
    {
      "mesh": 7,
      "name": ""
    },
    {
      "mesh": 8,
      "name": ""
    },
    {
      "mesh": 9,
      "name": ""
    },
    {
      "mesh": 10,
      "name": ""
    }
  ],
  "samplers": [
    {
      "magFilter": 9729,
      "minFilter": 9987,
      "wrapS": 10497,
      "wrapT": 10497
    }
  ],
  "scene": 0,
  "scenes": [
    {
      "name": "OSG_Scene",
      "nodes": [
        0
      ]
    }
  ],
  "textures": [
    {
      "sampler": 0,
      "source": 0
    }
  ]
}

