{
  "accessors": [
    {
      "bufferView": 2,
      "componentType": 5126,
      "count": 65532,
      "max": [
        52.42090606689453,
        10.09073543548584,
        11.610454559326172
      ],
      "min": [
        -35.18680191040039,
        -12.642763137817383,
        -94.03365325927734
      ],
      "type": "VEC3"
    },
    {
      "bufferView": 2,
      "byteOffset": 786384,
      "componentType": 5126,
      "count": 65532,
      "max": [
        0.9998709559440613,
        0.9999990463256836,
        0.9985480308532715
      ],
      "min": [
        -0.9913364052772522,
        -0.9750315546989441,
        -0.9996994733810425
      ],
      "type": "VEC3"
    },
    {
      "bufferView": 1,
      "componentType": 5126,
      "count": 65532,
      "max": [
        0.9938344359397888,
        0.895725667476654
      ],
      "min": [
        0.02079794928431511,
        5.316784154274501e-05
      ],
      "type": "VEC2"
    },
    {
      "bufferView": 0,
      "componentType": 5125,
      "count": 326157,
      "type": "SCALAR"
    },
    {
      "bufferView": 2,
      "byteOffset": 1572768,
      "componentType": 5126,
      "count": 65532,
      "max": [
        37.21603775024414,
        0.8855578899383545,
        17.05847930908203
      ],
      "min": [
        -61.7631950378418,
        -13.84599494934082,
        -50.117393493652344
      ],
      "type": "VEC3"
    },
    {
      "bufferView": 2,
      "byteOffset": 2359152,
      "componentType": 5126,
      "count": 65532,
      "max": [
        0.9999803900718689,
        1.0,
        0.9992177486419678
      ],
      "min": [
        -0.9997547268867493,
        -0.8766487836837769,
        -0.9192685484886169
      ],
      "type": "VEC3"
    },
    {
      "bufferView": 1,
      "byteOffset": 524256,
      "componentType": 5126,
      "count": 65532,
      "max": [
        0.7524601817131042,
        0.8959090113639832
      ],
      "min": [
        0.006382920313626528,
        0.008288877084851265
      ],
      "type": "VEC2"
    },
    {
      "bufferView": 0,
      "byteOffset": 1304628,
      "componentType": 5125,
      "count": 328116,
      "type": "SCALAR"
    },
    {
      "bufferView": 2,
      "byteOffset": 3145536,
      "componentType": 5126,
      "count": 65532,
      "max": [
        28.987262725830078,
        1.2608206272125244,
        18.19586944580078
      ],
      "min": [
        -61.87032699584961,
        -14.156984329223633,
        -51.11482620239258
      ],
      "type": "VEC3"
    },
    {
      "bufferView": 2,
      "byteOffset": 3931920,
      "componentType": 5126,
      "count": 65532,
      "max": [
        0.9507507681846619,
        0.9999997019767761,
        0.9992177486419678
      ],
      "min": [
        -0.9964969158172607,
        -0.9976555109024048,
        -0.9653208255767822
      ],
      "type": "VEC3"
    },
    {
      "bufferView": 1,
      "byteOffset": 1048512,
      "componentType": 5126,
      "count": 65532,
      "max": [
        0.7475773096084595,
        0.8959090113639832
      ],
      "min": [
        3.355798253323883e-05,
        0.0800919383764267
      ],
      "type": "VEC2"
    },
    {
      "bufferView": 0,
      "byteOffset": 2617092,
      "componentType": 5125,
      "count": 312900,
      "type": "SCALAR"
    },
    {
      "bufferView": 2,
      "byteOffset": 4718304,
      "componentType": 5126,
      "count": 65532,
      "max": [
        31.481300354003906,
        0.790165901184082,
        7.622459411621094
      ],
      "min": [
        -56.0457763671875,
        -12.008285522460938,
        -49.46595764160156
      ],
      "type": "VEC3"
    },
    {
      "bufferView": 2,
      "byteOffset": 5504688,
      "componentType": 5126,
      "count": 65532,
      "max": [
        0.9374765753746033,
        0.9999991655349731,
        0.9987738132476807
      ],
      "min": [
        -0.9965150952339172,
        -0.9991852641105652,
        -0.8678256869316101
      ],
      "type": "VEC3"
    },
    {
      "bufferView": 1,
      "byteOffset": 1572768,
      "componentType": 5126,
      "count": 65532,
      "max": [
        0.7507880926132202,
        0.8174600601196289
      ],
      "min": [
        0.006382920313626528,
        0.02114609070122242
      ],
      "type": "VEC2"
    },
    {
      "bufferView": 0,
      "byteOffset": 3868692,
      "componentType": 5125,
      "count": 311853,
      "type": "SCALAR"
    },
    {
      "bufferView": 2,
      "byteOffset": 6291072,
      "componentType": 5126,
      "count": 65532,
      "max": [
        34.74812316894531,
        10.072992324829102,
        -3.3410263061523438
      ],
      "min": [
        -51.4074592590332,
        -9.56845474243164,
        -93.645263671875
      ],
      "type": "VEC3"
    },
    {
      "bufferView": 2,
      "byteOffset": 7077456,
      "componentType": 5126,
      "count": 65532,
      "max": [
        0.99998539686203,
        0.9999998807907104,
        0.9988847374916077
      ],
      "min": [
        -0.998033344745636,
        -0.9996219277381897,
        -0.9455922842025757
      ],
      "type": "VEC3"
    },
    {
      "bufferView": 1,
      "byteOffset": 2097024,
      "componentType": 5126,
      "count": 65532,
      "max": [
        0.9675807952880859,
        0.822534441947937
      ],
      "min": [
        0.012043429538607597,
        0.005927693098783493
      ],
      "type": "VEC2"
    },
    {
      "bufferView": 0,
      "byteOffset": 5116104,
      "componentType": 5125,
      "count": 306867,
      "type": "SCALAR"
    },
    {
      "bufferView": 2,
      "byteOffset": 7863840,
      "componentType": 5126,
      "count": 65532,
      "max": [
        44.00081253051758,
        7.2035417556762695,
        -22.91921615600586
      ],
      "min": [
        -41.44121551513672,
        -4.815380096435547,
        -80.95350646972656
      ],
      "type": "VEC3"
    },
    {
      "bufferView": 2,
      "byteOffset": 8650224,
      "componentType": 5126,
      "count": 65532,
      "max": [
        0.9926333427429199,
        0.9999977350234985,
        0.9950701594352722
      ],
      "min": [
        -0.9993800520896912,
        -0.9989556670188904,
        -0.996889054775238
      ],
      "type": "VEC3"
    },
    {
      "bufferView": 1,
      "byteOffset": 2621280,
      "componentType": 5126,
      "count": 65532,
      "max": [
        0.9876754879951477,
        0.8961779475212097
      ],
      "min": [
        0.02382032386958599,
        0.03992532566189766
      ],
      "type": "VEC2"
    },
    {
      "bufferView": 0,
      "byteOffset": 6343572,
      "componentType": 5125,
      "count": 347187,
      "type": "SCALAR"
    },
    {
      "bufferView": 2,
      "byteOffset": 9436608,
      "componentType": 5126,
      "count": 65532,
      "max": [
        52.14974594116211,
        9.99660873413086,
        -25.821372985839844
      ],
      "min": [
        -42.297027587890625,
        -4.587390899658203,
        -93.908447265625
      ],
      "type": "VEC3"
    },
    {
      "bufferView": 2,
      "byteOffset": 10222992,
      "componentType": 5126,
      "count": 65532,
      "max": [
        0.9992513060569763,
        0.9999809265136719,
        0.9993947744369507
      ],
      "min": [
        -0.9994676113128662,
        -0.9983630776405334,
        -0.99992835521698
      ],
      "type": "VEC3"
    },
    {
      "bufferView": 1,
      "byteOffset": 3145536,
      "componentType": 5126,
      "count": 65532,
      "max": [
        0.995972752571106,
        0.8945427536964417
      ],
      "min": [
        0.0,
        0.004828799515962601
      ],
      "type": "VEC2"
    },
    {
      "bufferView": 0,
      "byteOffset": 7732320,
      "componentType": 5125,
      "count": 254064,
      "type": "SCALAR"
    },
    {
      "bufferView": 2,
      "byteOffset": 11009376,
      "componentType": 5126,
      "count": 58490,
      "max": [
        37.65955352783203,
        5.550175189971924,
        -10.780376434326172
      ],
      "min": [
        -49.056819915771484,
        -7.652888774871826,
        -61.389312744140625
      ],
      "type": "VEC3"
    },
    {
      "bufferView": 2,
      "byteOffset": 11711256,
      "componentType": 5126,
      "count": 58490,
      "max": [
        0.9999666810035706,
        0.999997615814209,
        0.9994046688079834
      ],
      "min": [
        -0.9998753070831299,
        -0.9992805123329163,
        -0.9999855756759644
      ],
      "type": "VEC3"
    },
    {
      "bufferView": 1,
      "byteOffset": 3669792,
      "componentType": 5126,
      "count": 58490,
      "max": [
        1.0,
        0.8913037180900574
      ],
      "min": [
        0.016726577654480934,
        0.0027973358519375324
      ],
      "type": "VEC2"
    },
    {
      "bufferView": 0,
      "byteOffset": 8748576,
      "componentType": 5125,
      "count": 262572,
      "type": "SCALAR"
    }
  ],
  "asset": {
    "extras": {
      "author": "majedhd (https://sketchfab.com/majedhd)",
      "license": "CC-BY-4.0 (http://creativecommons.org/licenses/by/4.0/)",
      "source": "https://sketchfab.com/3d-models/desert-pillar-terrain-raw-scan-867910e78d674d608909aa5001b0064f",
      "title": "Desert Pillar Terrain - RAW Scan"
    },
    "generator": "Sketchfab-12.63.0",
    "version": "2.0"
  },
  "bufferViews": [
    {
      "buffer": 0,
      "byteLength": 9798864,
      "name": "floatBufferViews",
      "target": 34963
    },
    {
      "buffer": 0,
      "byteLength": 4137712,
      "byteOffset": 9798864,
      "byteStride": 8,
      "name": "floatBufferViews",
      "target": 34962
    },
    {
      "buffer": 0,
      "byteLength": 12413136,
      "byteOffset": 13936576,
      "byteStride": 12,
      "name": "floatBufferViews",
      "target": 34962
    }
  ],
  "buffers": [
    {
      "byteLength": 26349712,
      "uri": "scene.bin"
    }
  ],
  "extensionsUsed": [
    "KHR_materials_unlit"
  ],
  "images": [
    {
      "uri": "textures/material0_baseColor.jpeg"
    }
  ],
  "materials": [
    {
      "doubleSided": true,
      "extensions": {
        "KHR_materials_unlit": {}
      },
      "name": "material0",
      "pbrMetallicRoughness": {
        "baseColorTexture": {
          "index": 0
        },
        "metallicFactor": 0.0
      }
    }
  ],
  "meshes": [
    {
      "name": "Model_material0_0",
      "primitives": [
        {
          "attributes": {
            "NORMAL": 1,
            "POSITION": 0,
            "TEXCOORD_0": 2
          },
          "indices": 3,
          "material": 0,
          "mode": 4
        }
      ]
    },
    {
      "name": "Model_material0_0",
      "primitives": [
        {
          "attributes": {
            "NORMAL": 5,
            "POSITION": 4,
            "TEXCOORD_0": 6
          },
          "indices": 7,
          "material": 0,
          "mode": 4
        }
      ]
    },
    {
      "name": "Model_material0_0",
      "primitives": [
        {
          "attributes": {
            "NORMAL": 9,
            "POSITION": 8,
            "TEXCOORD_0": 10
          },
          "indices": 11,
          "material": 0,
          "mode": 4
        }
      ]
    },
    {
      "name": "Model_material0_0",
      "primitives": [
        {
          "attributes": {
            "NORMAL": 13,
            "POSITION": 12,
            "TEXCOORD_0": 14
          },
          "indices": 15,
          "material": 0,
          "mode": 4
        }
      ]
    },
    {
      "name": "Model_material0_0",
      "primitives": [
        {
          "attributes": {
            "NORMAL": 17,
            "POSITION": 16,
            "TEXCOORD_0": 18
          },
          "indices": 19,
          "material": 0,
          "mode": 4
        }
      ]
    },
    {
      "name": "Model_material0_0",
      "primitives": [
        {
          "attributes": {
            "NORMAL": 21,
            "POSITION": 20,
            "TEXCOORD_0": 22
          },
          "indices": 23,
          "material": 0,
          "mode": 4
        }
      ]
    },
    {
      "name": "Model_material0_0",
      "primitives": [
        {
          "attributes": {
            "NORMAL": 25,
            "POSITION": 24,
            "TEXCOORD_0": 26
          },
          "indices": 27,
          "material": 0,
          "mode": 4
        }
      ]
    },
    {
      "name": "Model_material0_0",
      "primitives": [
        {
          "attributes": {
            "NORMAL": 29,
            "POSITION": 28,
            "TEXCOORD_0": 30
          },
          "indices": 31,
          "material": 0,
          "mode": 4
        }
      ]
    }
  ],
  "nodes": [
    {
      "children": [
        1
      ],
      "matrix": [
        0.8768520951271057,
        -0.0059945057146250135,
        -0.4807228446006775,
        0.0,
        0.08635815232992172,
        -0.9816941618919373,
        0.1697612404823301,
        0.0,
        -0.4729404151439667,
        -0.19036982953548412,
        -0.8602828979492188,
        0.0,
        17.176025390625,
        47.10524368286132,
        27.971548080444347,
        1.0
      ],
      "name": "Sketchfab_model"
    },
    {
      "children": [
        2
      ],
      "matrix": [
        1.0,
        0.0,
        0.0,
        0.0,
        0.0,
        -1.0,
        0.0,
        0.0,
        0.0,
        0.0,
        -1.0,
        0.0,
        0.0,
        0.0,
        0.0,
        1.0
      ],
      "name": "desert_Pillar_terrain.fbx"
    },
    {
      "children": [
        3
      ],
      "name": "RootNode"
    },
    {
      "children": [
        4,
        5,
        6,
        7,
        8,
        9,
        10,
        11
      ],
      "name": "Model"
    },
    {
      "mesh": 0,
      "name": "Model_material0_0"
    },
    {
      "mesh": 1,
      "name": "Model_material0_0"
    },
    {
      "mesh": 2,
      "name": "Model_material0_0"
    },
    {
      "mesh": 3,
      "name": "Model_material0_0"
    },
    {
      "mesh": 4,
      "name": "Model_material0_0"
    },
    {
      "mesh": 5,
      "name": "Model_material0_0"
    },
    {
      "mesh": 6,
      "name": "Model_material0_0"
    },
    {
      "mesh": 7,
      "name": "Model_material0_0"
    }
  ],
  "samplers": [
    {
      "magFilter": 9729,
      "minFilter": 9987,
      "wrapS": 10497,
      "wrapT": 10497
    }
  ],
  "scene": 0,
  "scenes": [
    {
      "name": "Sketchfab_Scene",
      "nodes": [
        0
      ]
    }
  ],
  "textures": [
    {
      "sampler": 0,
      "source": 0
    }
  ]
}
